<svg id="my-svg" width="100%" xmlns="http://www.w3.org/2000/svg" xmlns:xlink="http://www.w3.org/1999/xlink" class="erDiagram" style="max-width: 146.078px; background-color: white;" viewBox="0 0 146.078125 373.5" role="graphics-document document" aria-roledescription="er"><style>#my-svg{font-family:"trebuchet ms",verdana,arial,sans-serif;font-size:16px;fill:#333;}@keyframes edge-animation-frame{from{stroke-dashoffset:0;}}@keyframes dash{to{stroke-dashoffset:0;}}#my-svg .edge-animation-slow{stroke-dasharray:9,5!important;stroke-dashoffset:900;animation:dash 50s linear infinite;stroke-linecap:round;}#my-svg .edge-animation-fast{stroke-dasharray:9,5!important;stroke-dashoffset:900;animation:dash 20s linear infinite;stroke-linecap:round;}#my-svg .error-icon{fill:#552222;}#my-svg .error-text{fill:#552222;stroke:#552222;}#my-svg .edge-thickness-normal{stroke-width:1px;}#my-svg .edge-thickness-thick{stroke-width:3.5px;}#my-svg .edge-pattern-solid{stroke-dasharray:0;}#my-svg .edge-thickness-invisible{stroke-width:0;fill:none;}#my-svg .edge-pattern-dashed{stroke-dasharray:3;}#my-svg .edge-pattern-dotted{stroke-dasharray:2;}#my-svg .marker{fill:#333333;stroke:#333333;}#my-svg .marker.cross{stroke:#333333;}#my-svg svg{font-family:"trebuchet ms",verdana,arial,sans-serif;font-size:16px;}#my-svg p{margin:0;}#my-svg .entityBox{fill:#ECECFF;stroke:#9370DB;}#my-svg .relationshipLabelBox{fill:hsl(80, 100%, 96.2745098039%);opacity:0.7;background-color:hsl(80, 100%, 96.2745098039%);}#my-svg .relationshipLabelBox rect{opacity:0.5;}#my-svg .labelBkg{background-color:rgba(248.6666666666, 255, 235.9999999999, 0.5);}#my-svg .edgeLabel{background-color:rgba(232,232,232, 0.8);}#my-svg .edgeLabel .label rect{fill:rgba(232,232,232, 0.8);}#my-svg .edgeLabel .label text{fill:#333;}#my-svg .edgeLabel .label{fill:#9370DB;font-size:14px;}#my-svg .label{font-family:"trebuchet ms",verdana,arial,sans-serif;color:#333;}#my-svg .edge-pattern-dashed{stroke-dasharray:8,8;}#my-svg .node rect,#my-svg .node circle,#my-svg .node ellipse,#my-svg .node polygon{fill:#ECECFF;stroke:#9370DB;stroke-width:1px;}#my-svg .relationshipLine{stroke:#333333;stroke-width:1px;fill:none;}#my-svg .marker{fill:none!important;stroke:#333333!important;stroke-width:1;}#my-svg [data-look=neo].labelBkg{background-color:rgba(248.6666666666, 255, 235.9999999999, 0.5);}#my-svg .node .neo-node{stroke:#9370DB;}#my-svg [data-look="neo"].node rect,#my-svg [data-look="neo"].cluster rect,#my-svg [data-look="neo"].node polygon{stroke:#9370DB;filter:drop-shadow(1px 2px 2px rgba(185, 185, 185, 1));}#my-svg [data-look="neo"].node path{stroke:#9370DB;stroke-width:1px;}#my-svg [data-look="neo"].node .outer-path{filter:drop-shadow(1px 2px 2px rgba(185, 185, 185, 1));}#my-svg [data-look="neo"].node .neo-line path{stroke:#9370DB;filter:none;}#my-svg [data-look="neo"].node circle{stroke:#9370DB;filter:drop-shadow(1px 2px 2px rgba(185, 185, 185, 1));}#my-svg [data-look="neo"].node circle .state-start{fill:#000000;}#my-svg [data-look="neo"].icon-shape .icon{fill:#9370DB;filter:drop-shadow(1px 2px 2px rgba(185, 185, 185, 1));}#my-svg [data-look="neo"].icon-shape .icon-neo path{stroke:#9370DB;filter:drop-shadow(1px 2px 2px rgba(185, 185, 185, 1));}#my-svg :root{--mermaid-font-family:"trebuchet ms",verdana,arial,sans-serif;}</style><g><defs><marker id="my-svg_er-onlyOneStart" class="marker onlyOne er" refX="0" refY="9" markerWidth="18" markerHeight="18" orient="auto"><path d="M9,0 L9,18 M15,0 L15,18"/></marker></defs><defs><marker id="my-svg_er-onlyOneEnd" class="marker onlyOne er" refX="18" refY="9" markerWidth="18" markerHeight="18" orient="auto"><path d="M3,0 L3,18 M9,0 L9,18"/></marker></defs><defs><marker id="my-svg_er-zeroOrOneStart" class="marker zeroOrOne er" refX="0" refY="9" markerWidth="30" markerHeight="18" orient="auto"><circle fill="white" cx="21" cy="9" r="6"/><path d="M9,0 L9,18"/></marker></defs><defs><marker id="my-svg_er-zeroOrOneEnd" class="marker zeroOrOne er" refX="30" refY="9" markerWidth="30" markerHeight="18" orient="auto"><circle fill="white" cx="9" cy="9" r="6"/><path d="M21,0 L21,18"/></marker></defs><defs><marker id="my-svg_er-oneOrMoreStart" class="marker oneOrMore er" refX="18" refY="18" markerWidth="45" markerHeight="36" orient="auto"><path d="M0,18 Q 18,0 36,18 Q 18,36 0,18 M42,9 L42,27"/></marker></defs><defs><marker id="my-svg_er-oneOrMoreEnd" class="marker oneOrMore er" refX="27" refY="18" markerWidth="45" markerHeight="36" orient="auto"><path d="M3,9 L3,27 M9,18 Q27,0 45,18 Q27,36 9,18"/></marker></defs><defs><marker id="my-svg_er-zeroOrMoreStart" class="marker zeroOrMore er" refX="18" refY="18" markerWidth="57" markerHeight="36" orient="auto"><circle fill="white" cx="48" cy="18" r="6"/><path d="M0,18 Q18,0 36,18 Q18,36 0,18"/></marker></defs><defs><marker id="my-svg_er-zeroOrMoreEnd" class="marker zeroOrMore er" refX="39" refY="18" markerWidth="57" markerHeight="36" orient="auto"><circle fill="white" cx="9" cy="18" r="6"/><path d="M21,18 Q39,0 57,18 Q39,36 21,18"/></marker></defs><g class="root"><g class="clusters"/><g class="edgePaths"><path d="M73.039,179L73.039,187.417C73.039,195.833,73.039,212.667,73.039,229.5C73.039,246.333,73.039,263.167,73.039,271.583L73.039,280" id="my-svg-id_entity-TEST-0_entity-DEMO-1_0" class="edge-thickness-normal edge-pattern-solid relationshipLine" style="undefined;;;undefined" data-edge="true" data-et="edge" data-id="id_entity-TEST-0_entity-DEMO-1_0" data-points="W3sieCI6NzMuMDM5MDYyNSwieSI6MTc5fSx7IngiOjczLjAzOTA2MjUsInkiOjIyOS41fSx7IngiOjczLjAzOTA2MjUsInkiOjI4MH1d" data-look="classic" marker-start="url(#my-svg_er-onlyOneStart)" marker-end="url(#my-svg_er-zeroOrMoreEnd)"/></g><g class="edgeLabels"><g class="edgeLabel" transform="translate(73.0390625, 229.5)"><g class="label" data-id="id_entity-TEST-0_entity-DEMO-1_0" transform="translate(-19.765625, -10.5)"><foreignObject width="39.53125" height="21"><div xmlns="http://www.w3.org/1999/xhtml" class="labelBkg" style="display: table-cell; white-space: nowrap; line-height: 1.5; max-width: 200px; text-align: center;"><span class="edgeLabel"><p>places</p></span></div></foreignObject></g></g></g><g class="nodes"><g class="node default" id="my-svg-entity-TEST-0" data-look="classic" transform="translate(73.0390625, 93.5)"><g class="outer-path" style=""><path d="M-65.0390625 -85.5 L65.0390625 -85.5 L65.0390625 85.5 L-65.0390625 85.5" stroke="none" stroke-width="0" fill="#ECECFF"/><path d="M-65.0390625 -85.5 C-35.182177763586786 -85.5, -5.325293027173572 -85.5, 65.0390625 -85.5 M-65.0390625 -85.5 C-29.357854144146764 -85.5, 6.323354211706473 -85.5, 65.0390625 -85.5 M65.0390625 -85.5 C65.0390625 -25.621908101139702, 65.0390625 34.256183797720595, 65.0390625 85.5 M65.0390625 -85.5 C65.0390625 -50.60965644982661, 65.0390625 -15.719312899653218, 65.0390625 85.5 M65.0390625 85.5 C20.74576806530144 85.5, -23.54752636939712 85.5, -65.0390625 85.5 M65.0390625 85.5 C15.355032819907663 85.5, -34.328996860184674 85.5, -65.0390625 85.5 M-65.0390625 85.5 C-65.0390625 34.834058151246495, -65.0390625 -15.83188369750701, -65.0390625 -85.5 M-65.0390625 85.5 C-65.0390625 37.728799413299186, -65.0390625 -10.042401173401629, -65.0390625 -85.5" stroke="#9370DB" stroke-width="1.3" fill="none" stroke-dasharray="0 0"/></g><g style="" class="row-rect-odd"><path d="M-65.0390625 -42.75 L65.0390625 -42.75 L65.0390625 0 L-65.0390625 0" stroke="none" stroke-width="0" fill="hsl(240, 100%, 100%)"/><path d="M-65.0390625 -42.75 C-26.650990182696987 -42.75, 11.737082134606027 -42.75, 65.0390625 -42.75 M-65.0390625 -42.75 C-23.721013373065276 -42.75, 17.59703575386945 -42.75, 65.0390625 -42.75 M65.0390625 -42.75 C65.0390625 -29.133733435721638, 65.0390625 -15.517466871443276, 65.0390625 0 M65.0390625 -42.75 C65.0390625 -27.647919054085037, 65.0390625 -12.545838108170077, 65.0390625 0 M65.0390625 0 C16.531405477774648 0, -31.976251544450705 0, -65.0390625 0 M65.0390625 0 C28.228810414747073 0, -8.581441670505853 0, -65.0390625 0 M-65.0390625 0 C-65.0390625 -14.568182581393064, -65.0390625 -29.136365162786127, -65.0390625 -42.75 M-65.0390625 0 C-65.0390625 -16.994370298872955, -65.0390625 -33.98874059774591, -65.0390625 -42.75" stroke="#9370DB" stroke-width="1.3" fill="none" stroke-dasharray="0 0"/></g><g style="" class="row-rect-even"><path d="M-65.0390625 0 L65.0390625 0 L65.0390625 42.75 L-65.0390625 42.75" stroke="none" stroke-width="0" fill="hsl(240, 100%, 97.2745098039%)"/><path d="M-65.0390625 0 C-24.37699052759789 0, 16.28508144480422 0, 65.0390625 0 M-65.0390625 0 C-23.45494427687926 0, 18.12917394624148 0, 65.0390625 0 M65.0390625 0 C65.0390625 16.544108596468835, 65.0390625 33.08821719293767, 65.0390625 42.75 M65.0390625 0 C65.0390625 14.41634475844959, 65.0390625 28.83268951689918, 65.0390625 42.75 M65.0390625 42.75 C13.300377750544996 42.75, -38.43830699891001 42.75, -65.0390625 42.75 M65.0390625 42.75 C32.29600479445136 42.75, -0.4470529110972734 42.75, -65.0390625 42.75 M-65.0390625 42.75 C-65.0390625 30.028969536107855, -65.0390625 17.30793907221571, -65.0390625 0 M-65.0390625 42.75 C-65.0390625 27.60994610199268, -65.0390625 12.46989220398536, -65.0390625 0" stroke="#9370DB" stroke-width="1.3" fill="none" stroke-dasharray="0 0"/></g><g style="" class="row-rect-odd"><path d="M-65.0390625 42.75 L65.0390625 42.75 L65.0390625 85.5 L-65.0390625 85.5" stroke="none" stroke-width="0" fill="hsl(240, 100%, 100%)"/><path d="M-65.0390625 42.75 C-15.364556459413592 42.75, 34.309949581172816 42.75, 65.0390625 42.75 M-65.0390625 42.75 C-28.885079699517263 42.75, 7.268903100965474 42.75, 65.0390625 42.75 M65.0390625 42.75 C65.0390625 53.77976778729827, 65.0390625 64.80953557459654, 65.0390625 85.5 M65.0390625 42.75 C65.0390625 51.55567135856758, 65.0390625 60.36134271713516, 65.0390625 85.5 M65.0390625 85.5 C27.916472534391396 85.5, -9.206117431217208 85.5, -65.0390625 85.5 M65.0390625 85.5 C14.082968401412266 85.5, -36.87312569717547 85.5, -65.0390625 85.5 M-65.0390625 85.5 C-65.0390625 71.03208331388873, -65.0390625 56.56416662777745, -65.0390625 42.75 M-65.0390625 85.5 C-65.0390625 76.00456124596171, -65.0390625 66.50912249192342, -65.0390625 42.75" stroke="#9370DB" stroke-width="1.3" fill="none" stroke-dasharray="0 0"/></g><g class="label name" transform="translate(-17.421875, -76.125)" style=""><foreignObject width="34.84375" height="24"><div xmlns="http://www.w3.org/1999/xhtml" style="display: table-cell; white-space: nowrap; line-height: 1.5; max-width: 138px; text-align: start;"><span class="nodeLabel"><p>TEST</p></span></div></foreignObject></g><g class="label attribute-type" transform="translate(-52.5390625, -33.375)" style=""><foreignObject width="40.375" height="24"><div xmlns="http://www.w3.org/1999/xhtml" style="display: table-cell; white-space: nowrap; line-height: 1.5; max-width: 136px; text-align: start;"><span class="nodeLabel"><p>string</p></span></div></foreignObject></g><g class="label attribute-name" transform="translate(12.8359375, -33.375)" style=""><foreignObject width="13.484375" height="24"><div xmlns="http://www.w3.org/1999/xhtml" style="display: table-cell; white-space: nowrap; line-height: 1.5; max-width: 113px; text-align: start;"><span class="nodeLabel"><p>id</p></span></div></foreignObject></g><g class="label attribute-keys" transform="translate(77.5390625, -33.375)" style=""><foreignObject width="0" height="0"><div xmlns="http://www.w3.org/1999/xhtml" style="display: table-cell; white-space: nowrap; line-height: 1.5; max-width: 100px; text-align: start;"><span class="nodeLabel"></span></div></foreignObject></g><g class="label attribute-comment" transform="translate(77.5390625, -33.375)" style=""><foreignObject width="0" height="0"><div xmlns="http://www.w3.org/1999/xhtml" style="display: table-cell; white-space: nowrap; line-height: 1.5; max-width: 100px; text-align: start;"><span class="nodeLabel"></span></div></foreignObject></g><g class="label attribute-type" transform="translate(-52.5390625, 9.375)" style=""><foreignObject width="40.375" height="24"><div xmlns="http://www.w3.org/1999/xhtml" style="display: table-cell; white-space: nowrap; line-height: 1.5; max-width: 136px; text-align: start;"><span class="nodeLabel"><p>string</p></span></div></foreignObject></g><g class="label attribute-name" transform="translate(12.8359375, 9.375)" style=""><foreignObject width="39.15625" height="24"><div xmlns="http://www.w3.org/1999/xhtml" style="display: table-cell; white-space: nowrap; line-height: 1.5; max-width: 135px; text-align: start;"><span class="nodeLabel"><p>name</p></span></div></foreignObject></g><g class="label attribute-keys" transform="translate(77.5390625, 9.375)" style=""><foreignObject width="0" height="0"><div xmlns="http://www.w3.org/1999/xhtml" style="display: table-cell; white-space: nowrap; line-height: 1.5; max-width: 100px; text-align: start;"><span class="nodeLabel"></span></div></foreignObject></g><g class="label attribute-comment" transform="translate(77.5390625, 9.375)" style=""><foreignObject width="0" height="0"><div xmlns="http://www.w3.org/1999/xhtml" style="display: table-cell; white-space: nowrap; line-height: 1.5; max-width: 100px; text-align: start;"><span class="nodeLabel"></span></div></foreignObject></g><g class="label attribute-type" transform="translate(-52.5390625, 52.125)" style=""><foreignObject width="40.375" height="24"><div xmlns="http://www.w3.org/1999/xhtml" style="display: table-cell; white-space: nowrap; line-height: 1.5; max-width: 136px; text-align: start;"><span class="nodeLabel"><p>string</p></span></div></foreignObject></g><g class="label attribute-name" transform="translate(12.8359375, 52.125)" style=""><foreignObject width="39.703125" height="24"><div xmlns="http://www.w3.org/1999/xhtml" style="display: table-cell; white-space: nowrap; line-height: 1.5; max-width: 136px; text-align: start;"><span class="nodeLabel"><p>email</p></span></div></foreignObject></g><g class="label attribute-keys" transform="translate(77.5390625, 52.125)" style=""><foreignObject width="0" height="0"><div xmlns="http://www.w3.org/1999/xhtml" style="display: table-cell; white-space: nowrap; line-height: 1.5; max-width: 100px; text-align: start;"><span class="nodeLabel"></span></div></foreignObject></g><g class="label attribute-comment" transform="translate(77.5390625, 52.125)" style=""><foreignObject width="0" height="0"><div xmlns="http://www.w3.org/1999/xhtml" style="display: table-cell; white-space: nowrap; line-height: 1.5; max-width: 100px; text-align: start;"><span class="nodeLabel"></span></div></foreignObject></g><g class="divider"><path d="M-65.0390625 -42.75005 L-65.0390625 -42.74995 L65.0390625 -42.74995 L65.0390625 -42.75005" stroke="none" stroke-width="0" fill="#ECECFF" fill-rule="evenodd"/><path d="M-65.0390625 -42.75005 C-65.0390625 -42.75002743697789, -65.0390625 -42.750004873955774, -65.0390625 -42.74995 M-65.0390625 -42.75005 C-65.0390625 -42.75002369750567, -65.0390625 -42.74999739501133, -65.0390625 -42.74995 M-65.0390625 -42.74995 C-34.42005592802698 -42.74995, -3.8010493560539587 -42.74995, 65.0390625 -42.74995 M-65.0390625 -42.74995 C-27.888016645432167 -42.74995, 9.263029209135667 -42.74995, 65.0390625 -42.74995 M65.0390625 -42.74995 C65.0390625 -42.74997403775225, 65.0390625 -42.74999807550451, 65.0390625 -42.75005 M65.0390625 -42.74995 C65.0390625 -42.74997956945573, 65.0390625 -42.750009138911466, 65.0390625 -42.75005 M65.0390625 -42.75005 C34.36755787795529 -42.75005, 3.6960532559105914 -42.75005, -65.0390625 -42.75005 M65.0390625 -42.75005 C23.022559795293667 -42.75005, -18.993942909412667 -42.75005, -65.0390625 -42.75005" stroke="#9370DB" stroke-width="1.3" fill="none" stroke-dasharray="0 0"/></g><g class="divider"><path d="M0.3358875 -42.75 L0.3359875 -42.75 L0.3359875 85.5 L0.3358875 85.5" stroke="none" stroke-width="0" fill="#ECECFF" fill-rule="evenodd"/><path d="M0.3358875 -42.75 C0.33592492723042944 -42.75, 0.3359623544608589 -42.75, 0.3359875 -42.75 M0.3358875 -42.75 C0.335909124694675 -42.75, 0.33593074938934997 -42.75, 0.3359875 -42.75 M0.3359875 -42.75 C0.3359875 -16.746581871040476, 0.3359875 9.256836257919048, 0.3359875 85.5 M0.3359875 -42.75 C0.3359875 -5.047720846173888, 0.3359875 32.65455830765222, 0.3359875 85.5 M0.3359875 85.5 C0.33595932022529684 85.5, 0.33593114045059363 85.5, 0.3358875 85.5 M0.3359875 85.5 C0.33595106011497633 85.5, 0.33591462022995267 85.5, 0.3358875 85.5 M0.3358875 85.5 C0.3358875 58.80786916286938, 0.3358875 32.11573832573877, 0.3358875 -42.75 M0.3358875 85.5 C0.3358875 48.77518743691727, 0.3358875 12.050374873834542, 0.3358875 -42.75" stroke="#9370DB" stroke-width="1.3" fill="none" stroke-dasharray="0 0"/></g><g class="divider"><path d="M-65.0390625 -42.75005 L-65.0390625 -42.74995 L65.0390625 -42.74995 L65.0390625 -42.75005" stroke="none" stroke-width="0" fill="#ECECFF" fill-rule="evenodd"/><path d="M-65.0390625 -42.75005 C-65.0390625 -42.75002093597409, -65.0390625 -42.74999187194818, -65.0390625 -42.74995 M-65.0390625 -42.75005 C-65.0390625 -42.750011779859136, -65.0390625 -42.74997355971827, -65.0390625 -42.74995 M-65.0390625 -42.74995 C-33.6383395107333 -42.74995, -2.237616521466613 -42.74995, 65.0390625 -42.74995 M-65.0390625 -42.74995 C-20.967574913362334 -42.74995, 23.10391267327533 -42.74995, 65.0390625 -42.74995 M65.0390625 -42.74995 C65.0390625 -42.749980127322246, 65.0390625 -42.750010254644494, 65.0390625 -42.75005 M65.0390625 -42.74995 C65.0390625 -42.74997109182124, 65.0390625 -42.749992183642476, 65.0390625 -42.75005 M65.0390625 -42.75005 C25.050606293444076 -42.75005, -14.937849913111847 -42.75005, -65.0390625 -42.75005 M65.0390625 -42.75005 C31.642768188889328 -42.75005, -1.753526122221345 -42.75005, -65.0390625 -42.75005" stroke="#9370DB" stroke-width="1.3" fill="none" stroke-dasharray="0 0"/></g></g><g class="node default" id="my-svg-entity-DEMO-1" data-look="classic" transform="translate(73.0390625, 322.75)"><g class="outer-path" style=""><path d="M-64.9453125 -42.75 L64.9453125 -42.75 L64.9453125 42.75 L-64.9453125 42.75" stroke="none" stroke-width="0" fill="#ECECFF"/><path d="M-64.9453125 -42.75 C-17.59987041331467 -42.75, 29.745571673370662 -42.75, 64.9453125 -42.75 M-64.9453125 -42.75 C-17.357481162949348 -42.75, 30.230350174101304 -42.75, 64.9453125 -42.75 M64.9453125 -42.75 C64.9453125 -20.69746491391853, 64.9453125 1.3550701721629395, 64.9453125 42.75 M64.9453125 -42.75 C64.9453125 -23.09424038083952, 64.9453125 -3.4384807616790383, 64.9453125 42.75 M64.9453125 42.75 C37.74037402592748 42.75, 10.535435551854953 42.75, -64.9453125 42.75 M64.9453125 42.75 C30.453421377586423 42.75, -4.038469744827154 42.75, -64.9453125 42.75 M-64.9453125 42.75 C-64.9453125 23.563943752287386, -64.9453125 4.3778875045747725, -64.9453125 -42.75 M-64.9453125 42.75 C-64.9453125 10.01978907287748, -64.9453125 -22.71042185424504, -64.9453125 -42.75" stroke="#9370DB" stroke-width="1.3" fill="none" stroke-dasharray="0 0"/></g><g style="" class="row-rect-odd"><path d="M-64.9453125 0 L64.9453125 0 L64.9453125 42.75 L-64.9453125 42.75" stroke="none" stroke-width="0" fill="hsl(240, 100%, 100%)"/><path d="M-64.9453125 0 C-22.506422681691248 0, 19.932467136617504 0, 64.9453125 0 M-64.9453125 0 C-33.004449294634256 0, -1.0635860892685045 0, 64.9453125 0 M64.9453125 0 C64.9453125 12.610268677149342, 64.9453125 25.220537354298685, 64.9453125 42.75 M64.9453125 0 C64.9453125 12.103651958650758, 64.9453125 24.207303917301516, 64.9453125 42.75 M64.9453125 42.75 C34.223408316475144 42.75, 3.5015041329502807 42.75, -64.9453125 42.75 M64.9453125 42.75 C32.82232229584704 42.75, 0.6993320916940746 42.75, -64.9453125 42.75 M-64.9453125 42.75 C-64.9453125 27.3231003767268, -64.9453125 11.896200753453599, -64.9453125 0 M-64.9453125 42.75 C-64.9453125 27.55403440737002, -64.9453125 12.358068814740033, -64.9453125 0" stroke="#9370DB" stroke-width="1.3" fill="none" stroke-dasharray="0 0"/></g><g class="label name" transform="translate(-20.2578125, -33.375)" style=""><foreignObject width="40.515625" height="24"><div xmlns="http://www.w3.org/1999/xhtml" style="display: table-cell; white-space: nowrap; line-height: 1.5; max-width: 147px; text-align: start;"><span class="nodeLabel"><p>DEMO</p></span></div></foreignObject></g><g class="label attribute-type" transform="translate(-52.4453125, 9.375)" style=""><foreignObject width="40.375" height="24"><div xmlns="http://www.w3.org/1999/xhtml" style="display: table-cell; white-space: nowrap; line-height: 1.5; max-width: 136px; text-align: start;"><span class="nodeLabel"><p>string</p></span></div></foreignObject></g><g class="label attribute-name" transform="translate(12.9296875, 9.375)" style=""><foreignObject width="39.515625" height="24"><div xmlns="http://www.w3.org/1999/xhtml" style="display: table-cell; white-space: nowrap; line-height: 1.5; max-width: 136px; text-align: start;"><span class="nodeLabel"><p>demo</p></span></div></foreignObject></g><g class="label attribute-keys" transform="translate(77.4453125, 9.375)" style=""><foreignObject width="0" height="0"><div xmlns="http://www.w3.org/1999/xhtml" style="display: table-cell; white-space: nowrap; line-height: 1.5; max-width: 100px; text-align: start;"><span class="nodeLabel"></span></div></foreignObject></g><g class="label attribute-comment" transform="translate(77.4453125, 9.375)" style=""><foreignObject width="0" height="0"><div xmlns="http://www.w3.org/1999/xhtml" style="display: table-cell; white-space: nowrap; line-height: 1.5; max-width: 100px; text-align: start;"><span class="nodeLabel"></span></div></foreignObject></g><g class="divider"><path d="M-64.9453125 -0.00005 L-64.9453125 0.00005 L64.9453125 0.00005 L64.9453125 -0.00005" stroke="none" stroke-width="0" fill="#ECECFF" fill-rule="evenodd"/><path d="M-64.9453125 -0.00005 C-64.9453125 -0.00002193486293605989, -64.9453125 0.000006130274127880223, -64.9453125 0.00005 M-64.9453125 -0.00005 C-64.9453125 -0.000029134125896845367, -64.9453125 -0.000008268251793690732, -64.9453125 0.00005 M-64.9453125 0.00005 C-32.86885136974866 0.00005, -0.7923902394973226 0.00005, 64.9453125 0.00005 M-64.9453125 0.00005 C-18.108688875950754 0.00005, 28.72793474809849 0.00005, 64.9453125 0.00005 M64.9453125 0.00005 C64.9453125 0.000011509416235716244, 64.9453125 -0.000026981167528567514, 64.9453125 -0.00005 M64.9453125 0.00005 C64.9453125 0.000010581167820988259, 64.9453125 -0.000028837664358023485, 64.9453125 -0.00005 M64.9453125 -0.00005 C24.866594519152557 -0.00005, -15.212123461694887 -0.00005, -64.9453125 -0.00005 M64.9453125 -0.00005 C17.410594363528602 -0.00005, -30.124123772942795 -0.00005, -64.9453125 -0.00005" stroke="#9370DB" stroke-width="1.3" fill="none" stroke-dasharray="0 0"/></g><g class="divider"><path d="M0.4296375 0 L0.4297375 0 L0.4297375 42.75 L0.4296375 42.75" stroke="none" stroke-width="0" fill="#ECECFF" fill-rule="evenodd"/><path d="M0.4296375 0 C0.42966894566933855 0, 0.4297003913386771 0, 0.4297375 0 M0.4296375 0 C0.42967724563952175 0, 0.42971699127904345 0, 0.4297375 0 M0.4297375 0 C0.4297375 8.620614712465356, 0.4297375 17.24122942493071, 0.4297375 42.75 M0.4297375 0 C0.4297375 10.457941619476157, 0.4297375 20.915883238952315, 0.4297375 42.75 M0.4297375 42.75 C0.42971576948876633 42.75, 0.42969403897753267 42.75, 0.4296375 42.75 M0.4297375 42.75 C0.4297145688179651 42.75, 0.42969163763593016 42.75, 0.4296375 42.75 M0.4296375 42.75 C0.4296375 33.85471028133105, 0.4296375 24.959420562662096, 0.4296375 0 M0.4296375 42.75 C0.4296375 32.51745138700755, 0.4296375 22.28490277401509, 0.4296375 0" stroke="#9370DB" stroke-width="1.3" fill="none" stroke-dasharray="0 0"/></g><g class="divider"><path d="M-64.9453125 -0.00005 L-64.9453125 0.00005 L64.9453125 0.00005 L64.9453125 -0.00005" stroke="none" stroke-width="0" fill="#ECECFF" fill-rule="evenodd"/><path d="M-64.9453125 -0.00005 C-64.9453125 -0.000012727165339235618, -64.9453125 0.000024545669321528767, -64.9453125 0.00005 M-64.9453125 -0.00005 C-64.9453125 -0.000020765467072098705, -64.9453125 0.000008469065855802592, -64.9453125 0.00005 M-64.9453125 0.00005 C-24.155935118665212 0.00005, 16.633442262669575 0.00005, 64.9453125 0.00005 M-64.9453125 0.00005 C-23.503247298440606 0.00005, 17.93881790311879 0.00005, 64.9453125 0.00005 M64.9453125 0.00005 C64.9453125 0.00001940345902476523, 64.9453125 -0.000011193081950469542, 64.9453125 -0.00005 M64.9453125 0.00005 C64.9453125 0.00002164669286323866, 64.9453125 -0.000006706614273522679, 64.9453125 -0.00005 M64.9453125 -0.00005 C25.4064294128897 -0.00005, -14.1324536742206 -0.00005, -64.9453125 -0.00005 M64.9453125 -0.00005 C19.81207379868816 -0.00005, -25.32116490262368 -0.00005, -64.9453125 -0.00005" stroke="#9370DB" stroke-width="1.3" fill="none" stroke-dasharray="0 0"/></g></g></g></g></g><defs><filter id="my-svg-drop-shadow" height="130%" width="130%"><feDropShadow dx="4" dy="4" stdDeviation="0" flood-opacity="0.06" flood-color="#000000"/></filter></defs><defs><filter id="my-svg-drop-shadow-small" height="150%" width="150%"><feDropShadow dx="2" dy="2" stdDeviation="0" flood-opacity="0.06" flood-color="#000000"/></filter></defs></svg>