<svg id="my-svg" width="100%" xmlns="http://www.w3.org/2000/svg" xmlns:xlink="http://www.w3.org/1999/xlink" class="erDiagram" style="max-width: 146.078px; background-color: white;" viewBox="0 0 146.078125 373.5" role="graphics-document document" aria-roledescription="er"><style>#my-svg{font-family:"trebuchet ms",verdana,arial,sans-serif;font-size:16px;fill:#333;}@keyframes edge-animation-frame{from{stroke-dashoffset:0;}}@keyframes dash{to{stroke-dashoffset:0;}}#my-svg .edge-animation-slow{stroke-dasharray:9,5!important;stroke-dashoffset:900;animation:dash 50s linear infinite;stroke-linecap:round;}#my-svg .edge-animation-fast{stroke-dasharray:9,5!important;stroke-dashoffset:900;animation:dash 20s linear infinite;stroke-linecap:round;}#my-svg .error-icon{fill:#552222;}#my-svg .error-text{fill:#552222;stroke:#552222;}#my-svg .edge-thickness-normal{stroke-width:1px;}#my-svg .edge-thickness-thick{stroke-width:3.5px;}#my-svg .edge-pattern-solid{stroke-dasharray:0;}#my-svg .edge-thickness-invisible{stroke-width:0;fill:none;}#my-svg .edge-pattern-dashed{stroke-dasharray:3;}#my-svg .edge-pattern-dotted{stroke-dasharray:2;}#my-svg .marker{fill:#333333;stroke:#333333;}#my-svg .marker.cross{stroke:#333333;}#my-svg svg{font-family:"trebuchet ms",verdana,arial,sans-serif;font-size:16px;}#my-svg p{margin:0;}#my-svg .entityBox{fill:#ECECFF;stroke:#9370DB;}#my-svg .relationshipLabelBox{fill:hsl(80, 100%, 96.2745098039%);opacity:0.7;background-color:hsl(80, 100%, 96.2745098039%);}#my-svg .relationshipLabelBox rect{opacity:0.5;}#my-svg .labelBkg{background-color:rgba(248.6666666666, 255, 235.9999999999, 0.5);}#my-svg .edgeLabel{background-color:rgba(232,232,232, 0.8);}#my-svg .edgeLabel .label rect{fill:rgba(232,232,232, 0.8);}#my-svg .edgeLabel .label text{fill:#333;}#my-svg .edgeLabel .label{fill:#9370DB;font-size:14px;}#my-svg .label{font-family:"trebuchet ms",verdana,arial,sans-serif;color:#333;}#my-svg .edge-pattern-dashed{stroke-dasharray:8,8;}#my-svg .node rect,#my-svg .node circle,#my-svg .node ellipse,#my-svg .node polygon{fill:#ECECFF;stroke:#9370DB;stroke-width:1px;}#my-svg .relationshipLine{stroke:#333333;stroke-width:1px;fill:none;}#my-svg .marker{fill:none!important;stroke:#333333!important;stroke-width:1;}#my-svg [data-look=neo].labelBkg{background-color:rgba(248.6666666666, 255, 235.9999999999, 0.5);}#my-svg .node .neo-node{stroke:#9370DB;}#my-svg [data-look="neo"].node rect,#my-svg [data-look="neo"].cluster rect,#my-svg [data-look="neo"].node polygon{stroke:#9370DB;filter:drop-shadow(1px 2px 2px rgba(185, 185, 185, 1));}#my-svg [data-look="neo"].node path{stroke:#9370DB;stroke-width:1px;}#my-svg [data-look="neo"].node .outer-path{filter:drop-shadow(1px 2px 2px rgba(185, 185, 185, 1));}#my-svg [data-look="neo"].node .neo-line path{stroke:#9370DB;filter:none;}#my-svg [data-look="neo"].node circle{stroke:#9370DB;filter:drop-shadow(1px 2px 2px rgba(185, 185, 185, 1));}#my-svg [data-look="neo"].node circle .state-start{fill:#000000;}#my-svg [data-look="neo"].icon-shape .icon{fill:#9370DB;filter:drop-shadow(1px 2px 2px rgba(185, 185, 185, 1));}#my-svg [data-look="neo"].icon-shape .icon-neo path{stroke:#9370DB;filter:drop-shadow(1px 2px 2px rgba(185, 185, 185, 1));}#my-svg :root{--mermaid-font-family:"trebuchet ms",verdana,arial,sans-serif;}</style><g><defs><marker id="my-svg_er-onlyOneStart" class="marker onlyOne er" refX="0" refY="9" markerWidth="18" markerHeight="18" orient="auto"><path d="M9,0 L9,18 M15,0 L15,18"/></marker></defs><defs><marker id="my-svg_er-onlyOneEnd" class="marker onlyOne er" refX="18" refY="9" markerWidth="18" markerHeight="18" orient="auto"><path d="M3,0 L3,18 M9,0 L9,18"/></marker></defs><defs><marker id="my-svg_er-zeroOrOneStart" class="marker zeroOrOne er" refX="0" refY="9" markerWidth="30" markerHeight="18" orient="auto"><circle fill="white" cx="21" cy="9" r="6"/><path d="M9,0 L9,18"/></marker></defs><defs><marker id="my-svg_er-zeroOrOneEnd" class="marker zeroOrOne er" refX="30" refY="9" markerWidth="30" markerHeight="18" orient="auto"><circle fill="white" cx="9" cy="9" r="6"/><path d="M21,0 L21,18"/></marker></defs><defs><marker id="my-svg_er-oneOrMoreStart" class="marker oneOrMore er" refX="18" refY="18" markerWidth="45" markerHeight="36" orient="auto"><path d="M0,18 Q 18,0 36,18 Q 18,36 0,18 M42,9 L42,27"/></marker></defs><defs><marker id="my-svg_er-oneOrMoreEnd" class="marker oneOrMore er" refX="27" refY="18" markerWidth="45" markerHeight="36" orient="auto"><path d="M3,9 L3,27 M9,18 Q27,0 45,18 Q27,36 9,18"/></marker></defs><defs><marker id="my-svg_er-zeroOrMoreStart" class="marker zeroOrMore er" refX="18" refY="18" markerWidth="57" markerHeight="36" orient="auto"><circle fill="white" cx="48" cy="18" r="6"/><path d="M0,18 Q18,0 36,18 Q18,36 0,18"/></marker></defs><defs><marker id="my-svg_er-zeroOrMoreEnd" class="marker zeroOrMore er" refX="39" refY="18" markerWidth="57" markerHeight="36" orient="auto"><circle fill="white" cx="9" cy="18" r="6"/><path d="M21,18 Q39,0 57,18 Q39,36 21,18"/></marker></defs><g class="root"><g class="clusters"/><g class="edgePaths"><path d="M73.039,179L73.039,187.417C73.039,195.833,73.039,212.667,73.039,229.5C73.039,246.333,73.039,263.167,73.039,271.583L73.039,280" id="my-svg-id_entity-TEST-0_entity-DEMO-1_0" class="edge-thickness-normal edge-pattern-solid relationshipLine" style="undefined;;;undefined" data-edge="true" data-et="edge" data-id="id_entity-TEST-0_entity-DEMO-1_0" data-points="W3sieCI6NzMuMDM5MDYyNSwieSI6MTc5fSx7IngiOjczLjAzOTA2MjUsInkiOjIyOS41fSx7IngiOjczLjAzOTA2MjUsInkiOjI4MH1d" data-look="classic" marker-start="url(#my-svg_er-onlyOneStart)" marker-end="url(#my-svg_er-zeroOrMoreEnd)"/></g><g class="edgeLabels"><g class="edgeLabel" transform="translate(73.0390625, 229.5)"><g class="label" data-id="id_entity-TEST-0_entity-DEMO-1_0" transform="translate(-19.765625, -10.5)"><foreignObject width="39.53125" height="21"><div xmlns="http://www.w3.org/1999/xhtml" class="labelBkg" style="display: table-cell; white-space: nowrap; line-height: 1.5; max-width: 200px; text-align: center;"><span class="edgeLabel"><p>places</p></span></div></foreignObject></g></g></g><g class="nodes"><g class="node default" id="my-svg-entity-TEST-0" data-look="classic" transform="translate(73.0390625, 93.5)"><g class="outer-path" style=""><path d="M-65.0390625 -85.5 L65.0390625 -85.5 L65.0390625 85.5 L-65.0390625 85.5" stroke="none" stroke-width="0" fill="#ECECFF"/><path d="M-65.0390625 -85.5 C-21.215637807898702 -85.5, 22.607786884202596 -85.5, 65.0390625 -85.5 M-65.0390625 -85.5 C-15.155635244817375 -85.5, 34.72779201036525 -85.5, 65.0390625 -85.5 M65.0390625 -85.5 C65.0390625 -41.276038334493585, 65.0390625 2.9479233310128308, 65.0390625 85.5 M65.0390625 -85.5 C65.0390625 -29.185658277981673, 65.0390625 27.128683444036653, 65.0390625 85.5 M65.0390625 85.5 C27.21935909249946 85.5, -10.600344315001081 85.5, -65.0390625 85.5 M65.0390625 85.5 C31.97928995107508 85.5, -1.0804825978498371 85.5, -65.0390625 85.5 M-65.0390625 85.5 C-65.0390625 46.387828537991446, -65.0390625 7.275657075982892, -65.0390625 -85.5 M-65.0390625 85.5 C-65.0390625 45.51204872665937, -65.0390625 5.5240974533187455, -65.0390625 -85.5" stroke="#9370DB" stroke-width="1.3" fill="none" stroke-dasharray="0 0"/></g><g style="" class="row-rect-odd"><path d="M-65.0390625 -42.75 L65.0390625 -42.75 L65.0390625 0 L-65.0390625 0" stroke="none" stroke-width="0" fill="hsl(240, 100%, 100%)"/><path d="M-65.0390625 -42.75 C-16.384576225470063 -42.75, 32.269910049059874 -42.75, 65.0390625 -42.75 M-65.0390625 -42.75 C-24.314341426823383 -42.75, 16.410379646353235 -42.75, 65.0390625 -42.75 M65.0390625 -42.75 C65.0390625 -28.861251070673873, 65.0390625 -14.972502141347746, 65.0390625 0 M65.0390625 -42.75 C65.0390625 -31.47044903753121, 65.0390625 -20.190898075062417, 65.0390625 0 M65.0390625 0 C15.781480421184511 0, -33.47610165763098 0, -65.0390625 0 M65.0390625 0 C37.52480882806222 0, 10.010555156124433 0, -65.0390625 0 M-65.0390625 0 C-65.0390625 -10.35805497847917, -65.0390625 -20.71610995695834, -65.0390625 -42.75 M-65.0390625 0 C-65.0390625 -11.556216306728329, -65.0390625 -23.112432613456658, -65.0390625 -42.75" stroke="#9370DB" stroke-width="1.3" fill="none" stroke-dasharray="0 0"/></g><g style="" class="row-rect-even"><path d="M-65.0390625 0 L65.0390625 0 L65.0390625 42.75 L-65.0390625 42.75" stroke="none" stroke-width="0" fill="hsl(240, 100%, 97.2745098039%)"/><path d="M-65.0390625 0 C-31.694042747390192 0, 1.650977005219616 0, 65.0390625 0 M-65.0390625 0 C-14.656354937519446 0, 35.72635262496111 0, 65.0390625 0 M65.0390625 0 C65.0390625 12.498170403302913, 65.0390625 24.996340806605826, 65.0390625 42.75 M65.0390625 0 C65.0390625 13.315723404641162, 65.0390625 26.631446809282323, 65.0390625 42.75 M65.0390625 42.75 C20.860390827434415 42.75, -23.31828084513117 42.75, -65.0390625 42.75 M65.0390625 42.75 C22.417338200704755 42.75, -20.20438609859049 42.75, -65.0390625 42.75 M-65.0390625 42.75 C-65.0390625 32.42819104459545, -65.0390625 22.10638208919091, -65.0390625 0 M-65.0390625 42.75 C-65.0390625 32.67014645190793, -65.0390625 22.590292903815865, -65.0390625 0" stroke="#9370DB" stroke-width="1.3" fill="none" stroke-dasharray="0 0"/></g><g style="" class="row-rect-odd"><path d="M-65.0390625 42.75 L65.0390625 42.75 L65.0390625 85.5 L-65.0390625 85.5" stroke="none" stroke-width="0" fill="hsl(240, 100%, 100%)"/><path d="M-65.0390625 42.75 C-22.58170361367724 42.75, 19.875655272645517 42.75, 65.0390625 42.75 M-65.0390625 42.75 C-24.978404673637947 42.75, 15.082253152724107 42.75, 65.0390625 42.75 M65.0390625 42.75 C65.0390625 54.04964196488167, 65.0390625 65.34928392976335, 65.0390625 85.5 M65.0390625 42.75 C65.0390625 55.15243920594987, 65.0390625 67.55487841189974, 65.0390625 85.5 M65.0390625 85.5 C17.55109867544661 85.5, -29.93686514910678 85.5, -65.0390625 85.5 M65.0390625 85.5 C25.164471271674934 85.5, -14.710119956650132 85.5, -65.0390625 85.5 M-65.0390625 85.5 C-65.0390625 71.36445989833464, -65.0390625 57.22891979666929, -65.0390625 42.75 M-65.0390625 85.5 C-65.0390625 71.83093710061226, -65.0390625 58.16187420122451, -65.0390625 42.75" stroke="#9370DB" stroke-width="1.3" fill="none" stroke-dasharray="0 0"/></g><g class="label name" transform="translate(-17.421875, -76.125)" style=""><foreignObject width="34.84375" height="24"><div xmlns="http://www.w3.org/1999/xhtml" style="display: table-cell; white-space: nowrap; line-height: 1.5; max-width: 138px; text-align: start;"><span class="nodeLabel"><p>TEST</p></span></div></foreignObject></g><g class="label attribute-type" transform="translate(-52.5390625, -33.375)" style=""><foreignObject width="40.375" height="24"><div xmlns="http://www.w3.org/1999/xhtml" style="display: table-cell; white-space: nowrap; line-height: 1.5; max-width: 136px; text-align: start;"><span class="nodeLabel"><p>string</p></span></div></foreignObject></g><g class="label attribute-name" transform="translate(12.8359375, -33.375)" style=""><foreignObject width="13.484375" height="24"><div xmlns="http://www.w3.org/1999/xhtml" style="display: table-cell; white-space: nowrap; line-height: 1.5; max-width: 113px; text-align: start;"><span class="nodeLabel"><p>id</p></span></div></foreignObject></g><g class="label attribute-keys" transform="translate(77.5390625, -33.375)" style=""><foreignObject width="0" height="0"><div xmlns="http://www.w3.org/1999/xhtml" style="display: table-cell; white-space: nowrap; line-height: 1.5; max-width: 100px; text-align: start;"><span class="nodeLabel"></span></div></foreignObject></g><g class="label attribute-comment" transform="translate(77.5390625, -33.375)" style=""><foreignObject width="0" height="0"><div xmlns="http://www.w3.org/1999/xhtml" style="display: table-cell; white-space: nowrap; line-height: 1.5; max-width: 100px; text-align: start;"><span class="nodeLabel"></span></div></foreignObject></g><g class="label attribute-type" transform="translate(-52.5390625, 9.375)" style=""><foreignObject width="40.375" height="24"><div xmlns="http://www.w3.org/1999/xhtml" style="display: table-cell; white-space: nowrap; line-height: 1.5; max-width: 136px; text-align: start;"><span class="nodeLabel"><p>string</p></span></div></foreignObject></g><g class="label attribute-name" transform="translate(12.8359375, 9.375)" style=""><foreignObject width="39.15625" height="24"><div xmlns="http://www.w3.org/1999/xhtml" style="display: table-cell; white-space: nowrap; line-height: 1.5; max-width: 135px; text-align: start;"><span class="nodeLabel"><p>name</p></span></div></foreignObject></g><g class="label attribute-keys" transform="translate(77.5390625, 9.375)" style=""><foreignObject width="0" height="0"><div xmlns="http://www.w3.org/1999/xhtml" style="display: table-cell; white-space: nowrap; line-height: 1.5; max-width: 100px; text-align: start;"><span class="nodeLabel"></span></div></foreignObject></g><g class="label attribute-comment" transform="translate(77.5390625, 9.375)" style=""><foreignObject width="0" height="0"><div xmlns="http://www.w3.org/1999/xhtml" style="display: table-cell; white-space: nowrap; line-height: 1.5; max-width: 100px; text-align: start;"><span class="nodeLabel"></span></div></foreignObject></g><g class="label attribute-type" transform="translate(-52.5390625, 52.125)" style=""><foreignObject width="40.375" height="24"><div xmlns="http://www.w3.org/1999/xhtml" style="display: table-cell; white-space: nowrap; line-height: 1.5; max-width: 136px; text-align: start;"><span class="nodeLabel"><p>string</p></span></div></foreignObject></g><g class="label attribute-name" transform="translate(12.8359375, 52.125)" style=""><foreignObject width="39.703125" height="24"><div xmlns="http://www.w3.org/1999/xhtml" style="display: table-cell; white-space: nowrap; line-height: 1.5; max-width: 136px; text-align: start;"><span class="nodeLabel"><p>email</p></span></div></foreignObject></g><g class="label attribute-keys" transform="translate(77.5390625, 52.125)" style=""><foreignObject width="0" height="0"><div xmlns="http://www.w3.org/1999/xhtml" style="display: table-cell; white-space: nowrap; line-height: 1.5; max-width: 100px; text-align: start;"><span class="nodeLabel"></span></div></foreignObject></g><g class="label attribute-comment" transform="translate(77.5390625, 52.125)" style=""><foreignObject width="0" height="0"><div xmlns="http://www.w3.org/1999/xhtml" style="display: table-cell; white-space: nowrap; line-height: 1.5; max-width: 100px; text-align: start;"><span class="nodeLabel"></span></div></foreignObject></g><g class="divider"><path d="M-65.0390625 -42.75005 L-65.0390625 -42.74995 L65.0390625 -42.74995 L65.0390625 -42.75005" stroke="none" stroke-width="0" fill="#ECECFF" fill-rule="evenodd"/><path d="M-65.0390625 -42.75005 C-65.0390625 -42.7500130370964, -65.0390625 -42.7499760741928, -65.0390625 -42.74995 M-65.0390625 -42.75005 C-65.0390625 -42.75001526981396, -65.0390625 -42.74998053962791, -65.0390625 -42.74995 M-65.0390625 -42.74995 C-19.204881753416565 -42.74995, 26.62929899316687 -42.74995, 65.0390625 -42.74995 M-65.0390625 -42.74995 C-31.79328236553401 -42.74995, 1.452497768931977 -42.74995, 65.0390625 -42.74995 M65.0390625 -42.74995 C65.0390625 -42.74997700758731, 65.0390625 -42.750004015174625, 65.0390625 -42.75005 M65.0390625 -42.74995 C65.0390625 -42.749986123363705, 65.0390625 -42.75002224672742, 65.0390625 -42.75005 M65.0390625 -42.75005 C18.49747074319334 -42.75005, -28.04412101361332 -42.75005, -65.0390625 -42.75005 M65.0390625 -42.75005 C20.547068608586983 -42.75005, -23.944925282826034 -42.75005, -65.0390625 -42.75005" stroke="#9370DB" stroke-width="1.3" fill="none" stroke-dasharray="0 0"/></g><g class="divider"><path d="M0.3358875 -42.75 L0.3359875 -42.75 L0.3359875 85.5 L0.3358875 85.5" stroke="none" stroke-width="0" fill="#ECECFF" fill-rule="evenodd"/><path d="M0.3358875 -42.75 C0.3359113954099018 -42.75, 0.33593529081980356 -42.75, 0.3359875 -42.75 M0.3358875 -42.75 C0.3359179077206108 -42.75, 0.33594831544122156 -42.75, 0.3359875 -42.75 M0.3359875 -42.75 C0.3359875 -6.341595048691303, 0.3359875 30.066809902617393, 0.3359875 85.5 M0.3359875 -42.75 C0.3359875 2.4354248793609585, 0.3359875 47.62084975872192, 0.3359875 85.5 M0.3359875 85.5 C0.3359589180341082 85.5, 0.3359303360682165 85.5, 0.3358875 85.5 M0.3359875 85.5 C0.33595594686182473 85.5, 0.3359243937236495 85.5, 0.3358875 85.5 M0.3358875 85.5 C0.3358875 51.515667168527756, 0.3358875 17.53133433705551, 0.3358875 -42.75 M0.3358875 85.5 C0.3358875 47.15356381760346, 0.3358875 8.807127635206925, 0.3358875 -42.75" stroke="#9370DB" stroke-width="1.3" fill="none" stroke-dasharray="0 0"/></g><g class="divider"><path d="M-65.0390625 -42.75005 L-65.0390625 -42.74995 L65.0390625 -42.74995 L65.0390625 -42.75005" stroke="none" stroke-width="0" fill="#ECECFF" fill-rule="evenodd"/><path d="M-65.0390625 -42.75005 C-65.0390625 -42.75002309653704, -65.0390625 -42.74999619307408, -65.0390625 -42.74995 M-65.0390625 -42.75005 C-65.0390625 -42.75002984707657, -65.0390625 -42.75000969415313, -65.0390625 -42.74995 M-65.0390625 -42.74995 C-32.60335904573158 -42.74995, -0.16765559146315923 -42.74995, 65.0390625 -42.74995 M-65.0390625 -42.74995 C-17.370168407214024 -42.74995, 30.298725685571952 -42.74995, 65.0390625 -42.74995 M65.0390625 -42.74995 C65.0390625 -42.749973419169166, 65.0390625 -42.74999683833833, 65.0390625 -42.75005 M65.0390625 -42.74995 C65.0390625 -42.74998252169556, 65.0390625 -42.75001504339111, 65.0390625 -42.75005 M65.0390625 -42.75005 C37.339877823788825 -42.75005, 9.640693147577643 -42.75005, -65.0390625 -42.75005 M65.0390625 -42.75005 C37.49324203922239 -42.75005, 9.947421578444775 -42.75005, -65.0390625 -42.75005" stroke="#9370DB" stroke-width="1.3" fill="none" stroke-dasharray="0 0"/></g></g><g class="node default" id="my-svg-entity-DEMO-1" data-look="classic" transform="translate(73.0390625, 322.75)"><g class="outer-path" style=""><path d="M-64.9453125 -42.75 L64.9453125 -42.75 L64.9453125 42.75 L-64.9453125 42.75" stroke="none" stroke-width="0" fill="#ECECFF"/><path d="M-64.9453125 -42.75 C-19.41761582169908 -42.75, 26.11008085660184 -42.75, 64.9453125 -42.75 M-64.9453125 -42.75 C-18.482320285373675 -42.75, 27.98067192925265 -42.75, 64.9453125 -42.75 M64.9453125 -42.75 C64.9453125 -11.508921428837262, 64.9453125 19.732157142325477, 64.9453125 42.75 M64.9453125 -42.75 C64.9453125 -16.13638097754409, 64.9453125 10.477238044911822, 64.9453125 42.75 M64.9453125 42.75 C35.96433966187476 42.75, 6.983366823749513 42.75, -64.9453125 42.75 M64.9453125 42.75 C16.521580678993764 42.75, -31.90215114201247 42.75, -64.9453125 42.75 M-64.9453125 42.75 C-64.9453125 20.819870625160842, -64.9453125 -1.1102587496783158, -64.9453125 -42.75 M-64.9453125 42.75 C-64.9453125 22.35934201730063, -64.9453125 1.9686840346012602, -64.9453125 -42.75" stroke="#9370DB" stroke-width="1.3" fill="none" stroke-dasharray="0 0"/></g><g style="" class="row-rect-odd"><path d="M-64.9453125 0 L64.9453125 0 L64.9453125 42.75 L-64.9453125 42.75" stroke="none" stroke-width="0" fill="hsl(240, 100%, 100%)"/><path d="M-64.9453125 0 C-24.52565822836688 0, 15.893996043266242 0, 64.9453125 0 M-64.9453125 0 C-30.432011977445768 0, 4.081288545108464 0, 64.9453125 0 M64.9453125 0 C64.9453125 9.16723510821072, 64.9453125 18.33447021642144, 64.9453125 42.75 M64.9453125 0 C64.9453125 15.574289116726913, 64.9453125 31.148578233453826, 64.9453125 42.75 M64.9453125 42.75 C32.16048926672144 42.75, -0.624333966557117 42.75, -64.9453125 42.75 M64.9453125 42.75 C19.678122148095895 42.75, -25.58906820380821 42.75, -64.9453125 42.75 M-64.9453125 42.75 C-64.9453125 32.35848461513602, -64.9453125 21.96696923027204, -64.9453125 0 M-64.9453125 42.75 C-64.9453125 28.969226302142708, -64.9453125 15.188452604285413, -64.9453125 0" stroke="#9370DB" stroke-width="1.3" fill="none" stroke-dasharray="0 0"/></g><g class="label name" transform="translate(-20.2578125, -33.375)" style=""><foreignObject width="40.515625" height="24"><div xmlns="http://www.w3.org/1999/xhtml" style="display: table-cell; white-space: nowrap; line-height: 1.5; max-width: 147px; text-align: start;"><span class="nodeLabel"><p>DEMO</p></span></div></foreignObject></g><g class="label attribute-type" transform="translate(-52.4453125, 9.375)" style=""><foreignObject width="40.375" height="24"><div xmlns="http://www.w3.org/1999/xhtml" style="display: table-cell; white-space: nowrap; line-height: 1.5; max-width: 136px; text-align: start;"><span class="nodeLabel"><p>string</p></span></div></foreignObject></g><g class="label attribute-name" transform="translate(12.9296875, 9.375)" style=""><foreignObject width="39.515625" height="24"><div xmlns="http://www.w3.org/1999/xhtml" style="display: table-cell; white-space: nowrap; line-height: 1.5; max-width: 136px; text-align: start;"><span class="nodeLabel"><p>demo</p></span></div></foreignObject></g><g class="label attribute-keys" transform="translate(77.4453125, 9.375)" style=""><foreignObject width="0" height="0"><div xmlns="http://www.w3.org/1999/xhtml" style="display: table-cell; white-space: nowrap; line-height: 1.5; max-width: 100px; text-align: start;"><span class="nodeLabel"></span></div></foreignObject></g><g class="label attribute-comment" transform="translate(77.4453125, 9.375)" style=""><foreignObject width="0" height="0"><div xmlns="http://www.w3.org/1999/xhtml" style="display: table-cell; white-space: nowrap; line-height: 1.5; max-width: 100px; text-align: start;"><span class="nodeLabel"></span></div></foreignObject></g><g class="divider"><path d="M-64.9453125 -0.00005 L-64.9453125 0.00005 L64.9453125 0.00005 L64.9453125 -0.00005" stroke="none" stroke-width="0" fill="#ECECFF" fill-rule="evenodd"/><path d="M-64.9453125 -0.00005 C-64.9453125 -0.00002889013553123592, -64.9453125 -0.000007780271062471836, -64.9453125 0.00005 M-64.9453125 -0.00005 C-64.9453125 -0.000011028639966603226, -64.9453125 0.00002794272006679355, -64.9453125 0.00005 M-64.9453125 0.00005 C-15.253073144194069 0.00005, 34.43916621161186 0.00005, 64.9453125 0.00005 M-64.9453125 0.00005 C-17.72638370215472 0.00005, 29.49254509569056 0.00005, 64.9453125 0.00005 M64.9453125 0.00005 C64.9453125 0.00002035526058734455, 64.9453125 -0.000009289478825310902, 64.9453125 -0.00005 M64.9453125 0.00005 C64.9453125 0.00001623715451987947, 64.9453125 -0.000017525690960241062, 64.9453125 -0.00005 M64.9453125 -0.00005 C34.885812111091965 -0.00005, 4.826311722183931 -0.00005, -64.9453125 -0.00005 M64.9453125 -0.00005 C18.215470902426397 -0.00005, -28.514370695147207 -0.00005, -64.9453125 -0.00005" stroke="#9370DB" stroke-width="1.3" fill="none" stroke-dasharray="0 0"/></g><g class="divider"><path d="M0.4296375 0 L0.4297375 0 L0.4297375 42.75 L0.4296375 42.75" stroke="none" stroke-width="0" fill="#ECECFF" fill-rule="evenodd"/><path d="M0.4296375 0 C0.42966035148562376 0, 0.4296832029712475 0, 0.4297375 0 M0.4296375 0 C0.4296632870567309 0, 0.42968907411346186 0, 0.4297375 0 M0.4297375 0 C0.4297375 10.850763782268146, 0.4297375 21.701527564536292, 0.4297375 42.75 M0.4297375 0 C0.4297375 13.037058437344118, 0.4297375 26.074116874688237, 0.4297375 42.75 M0.4297375 42.75 C0.42971131557874437 42.75, 0.4296851311574887 42.75, 0.4296375 42.75 M0.4297375 42.75 C0.4297174571967194 42.75, 0.4296974143934388 42.75, 0.4296375 42.75 M0.4296375 42.75 C0.4296375 29.32756711489315, 0.4296375 15.905134229786295, 0.4296375 0 M0.4296375 42.75 C0.4296375 34.11365105534807, 0.4296375 25.477302110696147, 0.4296375 0" stroke="#9370DB" stroke-width="1.3" fill="none" stroke-dasharray="0 0"/></g><g class="divider"><path d="M-64.9453125 -0.00005 L-64.9453125 0.00005 L64.9453125 0.00005 L64.9453125 -0.00005" stroke="none" stroke-width="0" fill="#ECECFF" fill-rule="evenodd"/><path d="M-64.9453125 -0.00005 C-64.9453125 -0.000021739791396765252, -64.9453125 0.000006520417206469498, -64.9453125 0.00005 M-64.9453125 -0.00005 C-64.9453125 -0.000024704496139036206, -64.9453125 5.910077219275912e-7, -64.9453125 0.00005 M-64.9453125 0.00005 C-28.140732978235434 0.00005, 8.663846543529132 0.00005, 64.9453125 0.00005 M-64.9453125 0.00005 C-15.961293485998418 0.00005, 33.022725528003164 0.00005, 64.9453125 0.00005 M64.9453125 0.00005 C64.9453125 0.000016090249280690975, 64.9453125 -0.000017819501438618052, 64.9453125 -0.00005 M64.9453125 0.00005 C64.9453125 0.000011346576590747312, 64.9453125 -0.00002730684681850538, 64.9453125 -0.00005 M64.9453125 -0.00005 C28.189040699237324 -0.00005, -8.567231101525351 -0.00005, -64.9453125 -0.00005 M64.9453125 -0.00005 C17.397866170395076 -0.00005, -30.149580159209847 -0.00005, -64.9453125 -0.00005" stroke="#9370DB" stroke-width="1.3" fill="none" stroke-dasharray="0 0"/></g></g></g></g></g><defs><filter id="my-svg-drop-shadow" height="130%" width="130%"><feDropShadow dx="4" dy="4" stdDeviation="0" flood-opacity="0.06" flood-color="#000000"/></filter></defs><defs><filter id="my-svg-drop-shadow-small" height="150%" width="150%"><feDropShadow dx="2" dy="2" stdDeviation="0" flood-opacity="0.06" flood-color="#000000"/></filter></defs></svg>